<?xml version="1.0" standalone="no"?>
<!DOCTYPE svg PUBLIC "-//W3C//DTD SVG 20010904//EN"
 "http://www.w3.org/TR/2001/REC-SVG-20010904/DTD/svg10.dtd">
<svg version="1.0" xmlns="http://www.w3.org/2000/svg"
 width="2196.000000pt" height="390.000000pt" viewBox="0 0 2196.000000 390.000000"
 preserveAspectRatio="xMidYMid meet">

<g transform="translate(0.000000,390.000000) scale(0.100000,-0.100000)"
fill="#000000" stroke="none">
<path d="M12185 2975 l-630 -432 0 -598 0 -598 615 -436 c339 -240 629 -446
646 -458 l31 -22 509 366 c411 295 519 369 563 381 36 11 67 28 91 52 118 118
31 320 -137 320 -80 0 -163 -67 -179 -145 -5 -26 -64 -72 -424 -330 -230 -165
-422 -299 -426 -298 -5 1 -235 163 -511 358 l-503 356 0 453 0 452 483 332
c266 182 488 332 494 334 6 2 207 -139 447 -312 358 -259 437 -321 446 -347
35 -100 153 -151 253 -109 44 18 94 77 107 127 29 106 -56 224 -166 231 -34 3
-106 52 -550 374 -280 204 -514 373 -520 376 -5 3 -292 -189 -639 -427z"/>
<path d="M6075 3069 c-181 -21 -374 -85 -517 -170 -360 -215 -550 -572 -550
-1035 1 -655 397 -1137 1020 -1240 151 -24 401 -16 533 19 251 66 448 199 588
398 68 95 101 161 145 287 29 84 66 237 66 273 0 5 -67 9 -150 9 l-150 0 0
-29 c0 -48 -48 -201 -91 -287 -147 -298 -468 -458 -834 -414 -335 40 -600 228
-741 525 -151 319 -129 732 54 1002 257 378 843 504 1246 267 150 -88 270
-247 293 -389 l8 -50 168 -3 168 -2 -7 37 c-11 64 -55 195 -84 253 -131 259
-419 461 -758 530 -118 24 -297 32 -407 19z"/>
<path d="M15375 3073 c-537 -69 -906 -426 -999 -963 -63 -366 7 -753 187
-1022 132 -198 328 -348 552 -422 128 -42 211 -56 360 -63 491 -20 897 203
1098 603 38 74 92 237 113 339 26 125 27 460 1 587 -105 521 -448 855 -957
933 -86 14 -280 18 -355 8z m333 -264 c138 -21 307 -104 414 -201 185 -169
288 -442 288 -763 0 -206 -34 -366 -110 -525 -114 -235 -281 -375 -525 -441
-64 -17 -111 -22 -230 -23 -181 -1 -267 16 -400 78 -281 132 -446 395 -486
771 -37 353 60 676 265 881 198 198 463 273 784 223z"/>
<path d="M280 2904 l0 -155 43 5 c23 4 220 22 437 41 217 19 416 38 443 41
l47 6 0 -1106 0 -1106 145 0 145 0 0 1106 0 1106 48 -6 c26 -3 225 -22 442
-41 217 -19 414 -37 438 -41 l42 -5 0 155 0 156 -1115 0 -1115 0 0 -156z"/>
<path d="M2790 2740 l0 -320 130 0 130 0 0 185 0 185 920 0 920 0 0 135 0 135
-1050 0 -1050 0 0 -320z"/>
<path d="M7630 1845 l0 -1215 178 0 178 0 -3 33 c-2 17 -21 246 -43 507 -22
261 -42 501 -46 533 l-6 57 846 0 846 0 -6 -42 c-6 -49 -94 -1056 -94 -1075 0
-10 41 -13 180 -13 l180 0 0 1215 0 1216 -147 -3 -148 -3 -3 -527 -2 -528
-810 0 -810 0 0 530 0 530 -145 0 -145 0 0 -1215z"/>
<path d="M19347 3053 c-4 -3 -7 -147 -7 -320 l0 -314 133 3 132 3 3 183 2 182
915 0 915 0 0 135 0 135 -1043 0 c-574 0 -1047 -3 -1050 -7z"/>
<path d="M16930 1840 l0 -1210 520 0 c551 0 643 5 830 47 360 79 594 249 731
528 149 304 171 788 52 1143 -134 402 -450 626 -973 691 -50 7 -306 11 -622
11 l-538 0 0 -1210z m1010 960 c327 -25 524 -101 672 -258 147 -157 208 -363
208 -707 0 -592 -213 -861 -751 -945 -41 -7 -244 -14 -456 -17 l-383 -5 0 971
0 971 288 0 c158 0 348 -5 422 -10z"/>
<path d="M2950 1855 l0 -135 715 0 715 0 0 135 0 135 -715 0 -715 0 0 -135z"/>
<path d="M19500 1850 l0 -130 720 0 720 0 0 130 0 130 -720 0 -720 0 0 -130z"/>
<path d="M2790 955 l0 -325 1050 0 1051 0 -3 133 -3 132 -917 3 -918 2 0 190
0 190 -130 0 -130 0 0 -325z"/>
<path d="M19340 955 l0 -325 1050 0 1050 0 0 130 0 130 -915 0 -915 0 0 195 0
195 -135 0 -135 0 0 -325z"/>
</g>
</svg>
